<svg xmlns="http://www.w3.org/2000/svg" viewBox="0 0 1500 340" role="img" aria-label="Mazent logo"><svg x="0" y="0" width="340" height="340" viewBox="0 0 915 854"><path transform="translate(98.0 98.0) scale(1.0)" fill="#FFFFFF" fill-rule="evenodd" d="M24.1,635.6C23.2,634.6 23.0,617.6 23.2,571.2L23.5,508.2L25.3,506.2C26.3,505.1 28.4,503.9 29.8,503.5C31.3,503.2 34.1,501.9 36.0,500.6C41.7,496.9 52.8,493.4 54.8,494.7L56.5,495.7L56.5,548.4L56.5,601.2L58.4,602.6C60.0,603.7 65.1,604.0 83.5,604.0L106.7,604.0L108.5,602.0L110.3,600.1L110.6,532.3L110.9,464.5L113.4,462.5C119.7,457.5 123.4,455.0 124.9,455.0C125.7,455.0 128.1,453.8 130.1,452.4C134.3,449.5 141.3,448.1 142.4,449.9C142.8,450.5 143.1,484.7 143.0,525.9L142.9,600.8L144.5,602.4L146.1,604.0L168.8,604.2C195.9,604.3 195.2,604.4 196.8,602.3C197.7,601.0 198.0,579.3 198.0,502.0L198.0,403.4L195.2,400.9C193.7,399.5 190.3,396.8 187.7,394.9C185.1,393.0 181.3,390.2 179.2,388.7C177.2,387.1 174.2,385.1 172.5,384.3C170.9,383.4 168.3,381.5 166.8,380.0C165.3,378.5 161.5,375.5 158.3,373.4C155.1,371.3 151.6,368.8 150.5,367.7C149.4,366.7 147.4,366.0 146.0,366.2L143.5,366.5L143.0,391.0C142.7,404.5 142.1,416.2 141.7,417.1C140.9,418.8 130.0,425.3 126.0,426.5C124.6,426.9 122.4,428.3 121.0,429.5C117.8,432.5 114.0,433.4 111.7,431.8L109.9,430.4L110.0,384.9L110.1,339.3L103.4,333.0C99.7,329.6 95.3,326.2 93.6,325.5C91.9,324.7 89.6,323.2 88.6,322.1C87.5,320.9 83.3,317.7 79.1,315.0C74.9,312.2 69.2,308.2 66.5,306.1C61.2,301.9 57.6,301.0 56.6,303.6C56.3,304.5 56.0,339.9 56.0,382.4L56.0,459.7L53.8,461.7C49.1,465.8 45.1,468.0 39.4,469.5C36.3,470.3 32.7,471.9 31.5,473.0C29.1,475.3 25.7,475.6 24.1,473.7C23.3,472.7 23.0,409.7 23.0,247.9L22.9,23.5L25.8,23.2C28.0,23.0 29.3,23.6 30.8,25.5C31.9,26.9 37.3,31.0 42.7,34.6C48.1,38.3 53.9,42.4 55.5,43.9C57.1,45.4 59.6,47.2 61.0,47.8C64.2,49.4 69.7,53.2 73.5,56.5C77.2,59.8 85.2,65.0 86.5,65.0C87.0,65.0 89.0,66.5 91.0,68.4C96.4,73.5 109.2,83.0 110.7,83.0C111.5,83.0 113.1,84.0 114.3,85.3C117.7,88.7 125.7,95.0 126.8,95.0C127.7,95.0 130.5,97.0 139.5,104.0C148.5,111.0 151.3,113.0 152.2,113.0C152.7,113.0 155.0,114.6 157.3,116.5C166.0,123.8 175.5,131.0 176.6,131.0C177.2,131.0 179.3,132.5 181.3,134.2C187.2,139.6 191.7,143.0 192.8,143.0C193.4,143.0 195.6,144.5 197.9,146.2C200.1,148.0 203.8,150.8 206.0,152.5C208.3,154.2 211.6,156.7 213.4,158.2C215.3,159.8 217.2,161.0 217.7,161.0C218.3,161.0 221.8,163.6 225.6,166.8C234.3,174.0 241.1,179.0 242.3,179.0C242.9,179.0 245.2,180.7 247.5,182.8C249.9,184.8 253.3,187.5 255.1,188.8C263.5,194.5 265.5,195.9 272.9,201.6C277.2,205.0 281.8,208.3 283.1,209.0C285.4,210.2 289.2,213.2 295.5,218.6C301.2,223.5 306.3,227.0 307.7,227.0C308.4,227.0 310.6,228.5 312.4,230.2C314.3,232.0 318.1,235.1 320.9,237.0C327.0,241.2 330.7,243.9 339.5,250.5C343.2,253.2 347.6,256.4 349.4,257.5C351.2,258.6 353.9,260.5 355.4,261.8C359.2,264.8 362.0,264.6 366.5,261.0C368.6,259.4 370.6,258.0 371.1,258.0C371.5,258.0 373.9,256.3 376.3,254.2C378.7,252.2 385.8,246.9 392.0,242.5C398.2,238.1 405.0,232.8 407.1,230.8C409.2,228.7 411.4,227.0 412.0,227.0C413.3,227.0 425.0,218.9 425.0,218.0C425.0,217.6 427.4,215.8 430.2,213.8C433.1,211.9 436.5,209.7 437.6,208.9C442.4,205.8 453.4,197.3 456.1,194.7C457.7,193.2 460.5,191.4 462.3,190.6C464.1,189.8 468.0,187.0 471.0,184.3C474.0,181.5 477.4,179.0 478.5,178.6C479.6,178.2 483.0,175.9 486.0,173.5C489.0,171.0 494.1,167.3 497.3,165.3C500.5,163.2 504.9,160.2 507.0,158.5C509.1,156.8 512.5,154.4 514.5,153.0C516.6,151.6 519.9,149.1 521.9,147.4C523.9,145.7 526.9,143.6 528.5,142.7C530.1,141.9 533.9,138.9 536.9,136.1C539.8,133.3 542.8,131.0 543.5,131.0C544.9,131.0 549.4,127.7 559.6,119.3C563.7,115.8 567.5,113.0 568.1,113.0C569.2,113.0 578.7,106.4 581.9,103.3C583.2,102.0 584.8,101.0 585.5,101.0C586.1,101.0 587.7,99.9 589.0,98.5C590.3,97.1 591.9,96.0 592.5,96.0C593.2,96.0 597.2,93.1 601.5,89.5C605.8,85.9 609.9,83.0 610.6,83.0C611.3,83.0 616.6,79.1 622.4,74.2C628.1,69.4 635.2,64.2 638.1,62.5C641.0,60.9 644.5,58.4 645.9,57.0C649.5,53.6 653.7,50.5 658.5,47.9C660.7,46.7 664.9,43.6 667.9,41.1C670.9,38.6 674.7,35.6 676.5,34.5C684.2,29.8 688.0,26.9 688.9,25.1C690.1,22.9 694.1,21.9 696.4,23.2L698.0,24.1L698.0,213.5C698.0,326.1 697.6,403.8 697.1,405.3C696.4,407.0 693.3,409.2 686.8,412.5C681.7,415.1 676.4,418.1 675.1,419.1C672.6,421.1 666.5,421.7 665.5,420.0C665.2,419.5 664.7,392.8 664.5,360.8C664.2,328.7 664.0,302.2 664.0,301.8C664.0,300.0 658.9,301.2 656.3,303.5C650.4,308.8 643.8,314.0 643.0,314.0C642.6,314.0 639.2,316.4 635.6,319.2C632.0,322.1 627.3,325.6 625.0,327.0C622.8,328.3 618.7,331.5 616.0,334.0L611.0,338.6L611.0,393.9L611.0,449.1L609.5,451.9C608.4,454.0 605.0,456.3 595.8,460.9C583.8,466.9 578.6,468.3 577.9,465.8C577.7,465.1 577.7,443.1 578.0,417.0C578.3,390.9 578.3,368.7 578.2,367.8C577.4,364.2 572.1,365.0 569.1,369.3C568.4,370.3 566.3,371.9 564.6,372.6C560.2,374.7 554.5,379.0 552.0,382.2C550.8,383.8 549.3,385.0 548.7,385.0C547.6,385.0 543.4,387.7 529.6,397.3C526.7,399.3 523.8,402.3 523.2,403.8C521.6,407.8 522.1,601.5 523.6,603.0C525.2,604.6 574.8,604.4 576.7,602.8C577.7,602.0 578.0,591.7 578.0,552.0C578.0,524.6 578.3,501.5 578.6,500.6C579.3,498.9 589.1,492.7 593.0,491.5C594.4,491.1 597.0,489.4 598.8,487.9C602.1,484.9 609.1,483.8 610.5,486.0C610.8,486.5 611.0,510.9 610.9,540.2C610.7,601.2 610.7,599.5 612.0,602.1L613.1,604.0L637.4,604.0L661.8,604.0L663.1,602.3L664.5,600.7L664.5,526.8L664.5,452.8L666.9,450.9C668.2,449.9 670.0,449.0 671.0,449.0C673.6,449.0 687.3,441.9 688.8,439.8C690.3,437.8 695.0,437.4 696.8,439.2C697.7,440.1 698.0,463.1 698.0,536.5L698.0,632.6L696.4,634.8L694.9,637.0L594.4,637.0C527.0,637.0 493.2,636.7 491.9,636.0L490.0,634.9L490.0,532.0L490.0,429.0L487.8,429.0C485.7,429.1 483.6,430.4 474.9,437.1C467.1,443.1 451.3,454.6 448.5,456.4C446.9,457.4 443.3,460.1 440.6,462.4C437.9,464.6 434.2,467.4 432.4,468.5C430.6,469.6 426.5,472.6 423.2,475.2C419.9,477.7 416.2,480.4 414.9,481.1C413.6,481.8 409.8,484.5 406.5,487.1C393.0,497.9 384.9,504.0 383.8,504.0C383.3,504.0 381.5,505.3 379.7,507.0C364.3,521.4 359.7,522.0 346.2,511.6C343.3,509.3 337.4,505.0 333.1,502.0C328.8,499.0 321.8,493.8 317.6,490.5C313.3,487.2 308.1,483.4 306.1,482.0C297.4,475.9 292.0,471.8 292.0,471.0C292.0,470.6 290.6,469.7 288.8,468.9C287.1,468.2 282.9,465.3 279.6,462.5C276.2,459.6 272.6,456.8 271.5,456.2C268.9,454.8 248.5,440.0 244.0,436.3C237.7,431.0 233.1,428.7 231.6,429.9L230.2,431.1L230.1,532.8L230.0,634.5L228.3,635.8C227.0,636.7 204.9,637.0 125.9,637.0L25.2,637.0L24.1,635.6ZM370.5,473.2C374.5,470.1 379.5,466.4 381.5,465.0C383.6,463.6 386.9,461.1 388.9,459.5C390.9,457.8 395.7,454.3 399.7,451.7C403.7,449.1 407.2,446.5 407.5,445.9C407.9,445.4 410.7,443.4 413.8,441.4C416.9,439.4 420.9,436.6 422.5,435.1C424.1,433.6 427.7,431.1 430.4,429.5C433.1,428.0 436.9,425.3 438.9,423.6C440.9,421.9 444.5,419.2 446.9,417.6C449.3,416.1 453.1,413.1 455.4,411.1C457.6,409.1 461.9,405.9 464.9,404.0C467.8,402.1 472.0,399.2 474.0,397.6C478.6,393.9 490.8,385.1 497.0,381.1C499.5,379.4 502.6,377.1 503.9,375.9C505.2,374.7 507.9,372.8 510.0,371.6C514.1,369.3 525.1,361.3 530.9,356.4C532.9,354.8 537.0,351.6 540.0,349.5C543.0,347.4 547.8,343.8 550.5,341.5C553.2,339.2 557.5,336.2 560.0,334.8C562.5,333.3 567.6,329.7 571.4,326.8L578.3,321.5L578.2,290.6C578.1,266.3 577.8,259.5 576.8,258.8C573.9,256.9 570.2,259.2 553.8,273.2C551.8,274.9 549.1,276.8 547.8,277.4C545.1,278.6 542.0,280.8 535.5,286.0C533.1,287.9 529.7,290.5 527.8,291.8C526.0,293.0 521.7,296.2 518.2,298.8C512.1,303.4 509.0,305.6 502.1,310.2C500.2,311.5 496.7,314.4 494.2,316.8C485.6,324.7 484.7,323.4 484.7,301.6L484.6,284.0L488.0,280.4C489.9,278.4 492.8,276.2 494.3,275.3C497.2,273.8 511.6,263.1 515.6,259.5C516.8,258.4 520.1,255.9 523.0,254.0C525.9,252.1 531.0,248.2 534.4,245.4C537.7,242.6 542.1,239.5 544.0,238.5C545.9,237.5 550.1,234.6 553.2,232.1C556.3,229.6 562.0,225.5 565.9,223.1C569.7,220.7 574.2,217.3 575.7,215.6L578.5,212.5L578.0,182.0L577.5,151.5L575.2,151.2C573.7,151.0 571.4,152.2 568.2,155.0C565.6,157.3 561.5,160.4 559.0,161.8C556.5,163.2 553.4,165.3 552.0,166.5C550.6,167.8 548.1,169.5 546.5,170.3C544.9,171.1 541.2,173.8 538.3,176.2C535.5,178.6 531.1,181.8 528.6,183.3C526.1,184.9 522.2,187.6 520.1,189.3C513.9,194.3 497.7,206.3 491.0,210.8C489.6,211.7 483.9,216.0 478.2,220.2C472.5,224.5 466.9,228.5 465.7,229.1C464.5,229.8 460.9,232.5 457.7,235.1C454.5,237.8 451.5,240.0 451.0,240.0C450.6,240.0 448.4,241.5 446.2,243.2C444.0,245.0 436.3,250.8 429.0,256.0C421.8,261.2 412.7,268.1 408.8,271.2C404.9,274.4 401.4,277.0 400.9,277.0C400.5,277.0 397.4,279.2 394.1,282.0C390.8,284.7 386.8,287.8 385.2,288.7C383.6,289.7 378.8,293.2 374.5,296.5C365.2,303.8 357.4,309.4 353.8,311.5C352.3,312.3 348.0,315.3 344.3,318.1C340.6,320.9 336.1,323.9 334.5,324.7C332.9,325.6 330.6,327.1 329.5,328.1C328.4,329.2 325.0,331.7 322.0,333.8C318.6,336.1 316.5,338.3 316.5,339.5C316.5,341.4 326.2,349.9 331.0,352.2C332.4,352.9 335.2,354.8 337.2,356.5C339.2,358.1 342.6,360.8 344.7,362.3C346.8,363.8 350.2,366.4 352.4,368.0C360.0,373.8 363.6,372.6 379.2,359.6C383.0,356.3 387.5,352.9 389.0,352.1C390.6,351.2 395.3,347.8 399.5,344.5C406.6,338.8 408.6,337.4 416.9,331.8C418.7,330.5 421.9,328.1 423.9,326.4C425.9,324.7 428.6,322.7 430.0,322.0C434.0,319.9 447.3,309.7 449.4,307.2C450.7,305.5 452.1,305.0 454.4,305.2L457.5,305.5L457.8,322.3C457.9,332.5 457.6,339.8 457.0,341.0C455.8,343.3 444.2,353.1 436.9,358.0C434.1,359.9 428.9,363.8 425.5,366.6C422.1,369.5 417.8,372.6 415.9,373.5C414.0,374.5 410.1,377.2 407.1,379.4C400.1,384.8 396.4,387.4 391.5,390.6C389.3,392.1 385.2,395.2 382.5,397.5C379.8,399.8 376.1,402.5 374.5,403.4C369.6,406.2 360.3,413.0 354.9,417.8C352.9,419.5 350.8,421.0 350.3,421.0C349.3,421.0 345.0,424.1 338.7,429.2C334.8,432.3 331.3,434.8 324.4,439.4C318.3,443.4 317.0,444.7 317.0,446.7C317.0,447.7 327.7,456.5 334.4,460.9C335.5,461.7 337.5,463.3 338.8,464.4C340.0,465.5 342.5,467.3 344.4,468.4C346.3,469.6 350.1,472.4 353.0,474.8C359.9,480.4 361.6,480.2 370.5,473.2ZM293.0,422.5C294.9,420.6 296.7,419.0 297.2,419.0C297.6,419.0 300.7,416.9 304.1,414.2C307.4,411.6 311.7,408.5 313.6,407.2C315.5,406.0 317.0,404.5 317.0,404.0C317.0,403.4 319.5,401.9 322.5,400.6C331.2,396.7 331.3,392.2 322.9,386.5C320.4,384.9 315.6,381.1 312.2,378.2C308.7,375.4 305.3,373.0 304.5,373.0C303.7,373.0 299.9,370.3 296.1,367.0C292.2,363.7 288.7,361.0 288.3,361.0C287.8,361.0 285.9,359.7 284.0,358.0C282.1,356.4 280.0,355.1 279.3,355.0C278.6,355.0 276.6,353.7 274.8,352.1C268.7,346.6 263.3,342.5 259.0,340.0C256.7,338.6 252.9,335.9 250.6,333.9C244.3,328.5 239.4,325.0 238.1,325.0C237.4,325.0 234.5,322.9 231.6,320.4C226.5,315.7 218.2,309.9 212.7,306.9C211.0,306.0 209.2,304.7 208.6,303.9C207.4,302.4 199.6,296.4 190.9,290.4C187.8,288.2 182.5,284.4 179.1,281.8C175.7,279.1 172.5,277.0 171.9,277.0C171.3,277.0 169.6,275.8 168.2,274.2C166.7,272.7 163.3,269.9 160.7,268.0C158.1,266.1 154.3,263.2 152.3,261.7C149.7,259.8 147.7,259.0 145.6,259.2L142.5,259.5L142.4,289.0C142.3,318.5 142.6,321.1 146.0,324.0C150.7,328.0 160.1,335.0 160.8,335.0C161.2,335.0 163.6,336.7 166.2,338.8C168.8,340.8 172.5,343.6 174.5,345.0C176.5,346.4 179.3,348.4 180.8,349.6C182.3,350.7 186.9,354.0 191.0,356.9C195.1,359.7 200.5,363.6 203.0,365.6C205.5,367.5 209.1,369.7 211.0,370.6C212.9,371.5 215.5,373.4 216.7,374.9C217.9,376.4 220.8,378.9 223.2,380.6C230.2,385.4 245.3,396.2 248.6,399.0C250.4,400.4 253.7,402.6 256.1,404.0C258.4,405.4 262.5,408.3 265.1,410.5C272.5,416.6 275.3,418.7 277.6,419.4C278.7,419.7 280.9,421.4 282.5,423.0C286.2,426.9 288.8,426.8 293.0,422.5ZM293.8,315.5C297.2,312.6 304.7,307.1 312.6,301.5C324.3,293.2 329.0,289.0 329.0,286.5C329.0,284.2 324.5,279.9 319.1,277.0C317.7,276.3 314.6,273.8 312.1,271.5C309.6,269.2 303.7,264.7 299.0,261.5C294.3,258.3 288.7,254.2 286.5,252.5C282.6,249.4 277.3,245.7 270.6,241.5C268.8,240.4 265.1,237.5 262.4,235.1C259.7,232.8 256.3,230.2 254.7,229.4C253.2,228.6 249.4,225.9 246.2,223.5C238.5,217.4 207.9,194.9 197.5,187.5C192.8,184.2 185.2,178.6 180.6,175.0C171.0,167.6 167.7,165.1 164.5,163.0C163.3,162.2 159.6,159.5 156.4,157.0C153.1,154.5 146.7,150.6 142.0,148.2C137.3,145.8 132.4,142.9 131.0,141.6C129.6,140.3 126.9,138.2 125.0,136.9C123.1,135.6 118.5,131.8 114.9,128.5C106.8,121.1 101.3,116.7 98.0,115.0C96.6,114.3 92.6,111.4 89.0,108.6C85.4,105.7 79.5,101.5 75.9,99.2C72.3,96.9 68.2,93.8 66.9,92.4C65.6,91.0 63.3,89.2 61.8,88.4L59.1,87.0L57.6,88.5L56.1,90.0L56.1,171.8L56.1,253.5L58.1,257.6C59.2,259.9 61.8,262.9 63.8,264.3C65.9,265.7 69.8,268.6 72.4,270.9C75.0,273.2 77.7,275.0 78.3,275.0C79.0,275.0 83.1,277.9 87.4,281.5C91.7,285.1 95.5,288.0 96.0,288.0C96.4,288.0 98.5,289.4 100.6,291.0C103.3,293.2 105.3,294.0 107.4,293.8L110.5,293.5L111.0,244.0C111.3,216.8 111.9,193.9 112.3,193.2C113.7,191.2 117.5,191.8 120.1,194.6C121.4,196.0 124.8,198.8 127.5,200.8C130.2,202.7 135.2,206.9 138.5,210.0C144.4,215.6 154.6,223.7 160.5,227.4C162.2,228.5 165.8,231.2 168.5,233.5C171.2,235.8 174.6,238.3 175.9,239.0C177.2,239.6 180.9,242.3 184.2,244.8C194.2,252.6 197.3,254.8 201.0,257.0C202.9,258.1 208.1,261.9 212.5,265.5C216.9,269.1 221.8,272.7 223.5,273.6C225.2,274.6 229.2,277.6 232.5,280.5C235.8,283.4 240.1,286.5 242.0,287.5C243.9,288.5 247.7,291.1 250.4,293.4C255.1,297.3 257.6,299.0 265.0,303.5C266.8,304.6 271.0,307.8 274.4,310.6C284.6,319.0 288.4,320.0 293.8,315.5ZM622.7,289.6C625.3,287.6 628.7,285.0 630.2,283.8C631.6,282.5 634.3,280.5 636.2,279.2C649.5,270.1 655.4,265.6 660.2,260.9L664.9,256.3L664.6,172.8C664.4,126.8 664.0,88.7 663.6,88.1C662.2,85.9 659.4,87.1 652.5,92.6C648.6,95.7 643.5,99.6 641.0,101.3C638.5,102.9 634.2,106.2 631.5,108.5C628.8,110.7 624.5,113.8 622.0,115.2C619.5,116.7 616.0,119.4 614.2,121.3L610.9,124.7L610.9,209.0C610.9,273.5 611.2,293.5 612.1,294.1C613.8,295.1 617.0,293.7 622.7,289.6Z" /></svg><svg x="360" y="0" width="1140" height="340" viewBox="0 850 1636 560"><path transform="translate(134.0 867.0) scale(1.0)" fill="#FFFFFF" fill-rule="evenodd" d="M40.2,235.0C39.0,234.5 37.6,233.0 37.2,231.8C36.8,230.5 36.7,184.4 37.0,129.2L37.5,28.8L39.5,27.4L41.5,25.9L68.5,26.2C99.7,26.6 100.1,26.7 102.5,34.1C103.4,36.7 104.9,39.9 105.9,41.2C106.9,42.5 108.1,45.1 108.5,47.0C109.8,53.2 116.1,68.8 124.0,85.5C125.6,88.8 127.2,93.1 127.5,95.0C127.9,96.9 129.0,100.0 130.1,101.7C131.1,103.5 132.4,106.9 133.1,109.2C133.7,111.5 135.0,114.5 136.1,115.8C137.1,117.1 138.2,119.8 138.6,121.9C139.0,123.9 140.8,128.9 142.6,133.2C144.5,137.4 146.0,141.4 146.0,142.2C146.0,142.9 147.0,145.1 148.1,147.0C149.3,148.9 150.8,152.5 151.6,155.0C152.3,157.5 154.3,161.1 156.0,163.0L159.0,166.5L160.5,164.6C161.3,163.5 162.0,161.9 162.0,161.1C162.0,160.2 162.7,158.2 163.6,156.5C165.1,153.7 167.1,148.4 172.4,133.5C173.5,130.2 175.5,125.8 176.8,123.9C178.0,121.9 179.0,119.6 179.0,118.9C179.0,118.1 179.9,116.1 180.9,114.4C181.9,112.7 183.5,108.7 184.5,105.5C185.4,102.2 187.3,97.5 188.6,95.0C189.9,92.6 191.0,89.5 191.0,88.3C191.0,87.1 192.1,84.9 193.4,83.3C194.8,81.7 196.2,79.0 196.6,77.4C197.0,75.8 198.1,72.8 199.2,70.7C200.2,68.7 201.7,64.3 202.6,60.9C203.5,57.6 205.2,53.3 206.6,51.3C207.9,49.3 209.0,46.9 209.0,46.0C209.0,45.0 210.8,40.6 213.0,36.2L217.1,28.1L220.3,27.1C222.1,26.6 234.8,26.1 248.7,26.1L273.8,26.1L275.4,27.9L276.9,29.6L277.0,131.5L277.1,233.4L275.4,234.7C272.7,236.7 231.1,236.5 228.4,234.6L226.5,233.2L226.3,176.0C226.3,144.6 225.9,118.6 225.6,118.3C224.9,117.5 222.0,119.9 222.0,121.4C222.0,122.0 220.9,124.8 219.5,127.5C218.2,130.2 217.0,133.2 217.0,134.1C217.0,135.0 215.9,137.7 214.6,140.2C213.3,142.7 211.9,146.2 211.5,148.1C211.1,150.0 209.6,154.0 208.3,157.0C207.0,160.0 205.4,164.8 204.9,167.5C204.4,170.2 203.1,173.7 202.0,175.1C201.0,176.6 199.8,179.1 199.4,180.6C199.0,182.2 197.9,185.1 196.9,187.0C195.1,190.4 194.2,192.9 188.5,209.5C187.0,213.9 184.8,219.8 183.5,222.5C182.3,225.2 180.7,228.9 180.0,230.7C178.3,235.3 175.0,236.0 156.3,236.0L139.8,236.0L137.1,233.2C135.6,231.7 133.6,228.2 132.6,225.5C131.7,222.8 129.8,218.2 128.5,215.5C125.8,210.0 121.8,199.0 119.0,189.2C117.9,185.8 116.2,181.8 115.1,180.3C113.9,178.9 113.0,176.8 113.0,175.6C113.0,174.4 111.9,171.8 110.5,169.8C109.1,167.7 107.5,163.9 107.0,161.3C106.6,158.6 104.8,153.1 103.1,148.8C101.4,144.6 100.0,140.6 100.0,139.8C100.0,139.1 99.3,137.2 98.4,135.5C97.5,133.8 96.0,130.2 95.1,127.5C93.9,123.7 93.0,122.5 91.5,122.5L89.5,122.5L89.5,177.6L89.5,232.7L88.1,234.3L86.8,236.0L64.6,235.9C52.5,235.9 41.5,235.5 40.2,235.0ZM317.1,234.2L314.9,232.5L316.6,227.0C317.5,224.0 319.0,220.2 320.0,218.5C321.0,216.8 324.1,208.6 327.0,200.1C329.9,191.6 332.9,183.5 333.6,182.1C334.4,180.7 335.0,178.9 335.0,178.1C335.0,177.3 336.1,174.8 337.4,172.6C338.7,170.3 340.0,167.2 340.4,165.5C340.8,163.8 342.2,159.6 343.6,156.2C345.0,152.7 346.5,147.4 347.0,144.4C347.5,141.5 349.0,137.4 350.4,135.3C351.8,133.2 353.0,130.7 353.0,129.7C353.0,128.6 354.1,125.7 355.5,123.1C357.8,118.7 360.9,110.0 365.0,96.1C366.1,92.6 367.5,89.1 368.2,88.2C369.8,86.3 373.6,76.6 376.2,67.5C377.3,63.6 379.2,58.2 380.5,55.5C381.8,52.8 383.3,48.7 383.9,46.5C384.5,44.3 385.6,41.6 386.4,40.5C387.2,39.4 388.3,36.5 389.0,34.2C389.6,31.8 391.0,29.0 392.1,27.9L394.0,26.0L421.2,26.2L448.4,26.5L452.1,31.9C454.2,34.9 456.4,39.6 457.0,42.2C457.5,44.9 458.9,48.8 459.9,50.8C461.0,52.9 462.6,57.5 463.5,60.9C464.4,64.4 465.8,68.2 466.6,69.5C467.4,70.7 468.7,73.9 469.5,76.7C470.3,79.5 471.7,82.3 472.5,83.0C473.3,83.7 474.2,85.8 474.6,87.9C475.0,89.9 476.5,94.5 478.0,98.1C479.5,101.7 481.1,106.2 481.5,108.1C481.9,110.0 483.3,113.6 484.6,116.2C485.9,118.8 487.0,121.5 487.0,122.3C487.0,123.0 488.0,125.4 489.1,127.5C490.3,129.7 492.3,135.1 493.5,139.5C496.7,150.3 500.4,160.7 502.9,165.5C504.1,167.6 505.0,170.3 505.0,171.5C505.0,172.6 505.9,175.0 507.1,176.9C508.2,178.8 510.0,183.6 511.0,187.5C512.0,191.5 513.8,196.5 514.9,198.6C516.1,200.7 517.0,203.2 517.0,204.0C517.0,204.8 518.1,207.5 519.4,210.0C520.7,212.5 522.3,216.5 523.0,219.0C523.7,221.4 525.0,224.5 526.1,225.8C528.6,229.0 528.6,233.6 526.1,235.0C524.9,235.6 514.9,236.0 500.7,236.0L477.2,236.0L475.2,234.2C473.2,232.6 471.6,228.6 467.1,215.0C466.1,212.0 464.0,207.2 462.3,204.5L459.4,199.5L421.6,199.2C398.4,199.1 383.2,199.4 382.1,200.0C381.1,200.5 379.7,203.0 379.1,205.7C378.4,208.3 377.0,211.9 376.0,213.6C375.0,215.3 373.7,219.1 373.1,222.0C371.8,228.0 368.8,233.5 366.0,235.0C364.9,235.6 354.5,236.0 341.7,236.0L319.2,236.0L317.1,234.2ZM564.0,234.2L561.9,232.5L562.2,212.8L562.5,193.2L564.7,190.8C565.9,189.5 567.6,186.9 568.4,184.9C569.2,182.9 570.6,180.7 571.6,179.9C572.5,179.2 574.3,176.9 575.6,175.0C576.9,173.1 579.6,169.5 581.5,167.0C583.4,164.5 585.7,161.2 586.6,159.5C587.5,157.8 590.4,154.0 592.9,151.0C595.5,148.0 599.7,142.3 602.3,138.5C604.9,134.7 609.4,128.5 612.3,124.8C615.2,121.1 619.2,115.7 621.3,112.8C623.4,109.9 626.9,105.2 629.1,102.5C631.3,99.8 633.9,95.6 635.0,93.2C636.0,90.9 637.3,89.0 637.7,89.0C638.2,89.0 640.3,86.5 642.5,83.4C644.7,80.3 647.8,76.2 649.3,74.4C650.9,72.6 652.0,70.3 651.8,69.3L651.5,67.5L608.6,67.2L565.6,67.0L563.7,65.3L561.8,63.5L562.2,46.3L562.5,29.1L564.1,27.5L565.6,25.9L626.6,26.0C660.1,26.0 692.3,26.0 698.2,26.0L709.0,26.0L711.0,28.0L713.0,30.0L713.0,46.9L713.0,63.9L710.8,67.7C709.6,69.8 707.4,73.0 705.8,74.8C704.3,76.6 703.0,78.7 703.0,79.5C703.0,80.4 701.8,82.3 700.2,83.9C698.7,85.6 696.0,88.8 694.2,91.2C692.4,93.6 689.6,97.2 688.0,99.4C686.3,101.5 685.0,103.7 685.0,104.2C685.0,104.7 682.2,108.4 678.8,112.4C675.3,116.4 671.4,121.6 670.0,123.9C668.6,126.3 666.1,129.9 664.5,131.9C661.3,135.6 658.9,139.0 655.5,144.4C653.0,148.3 648.9,153.8 642.8,161.2C640.3,164.3 637.8,167.9 637.4,169.2C637.0,170.4 633.6,175.0 629.8,179.4C622.1,188.3 620.7,191.6 623.6,193.7L625.5,195.1L668.4,194.9L711.4,194.8L712.7,196.6C713.7,197.9 714.0,203.0 714.0,215.6L714.0,232.9L712.4,234.4L710.9,236.0L638.5,236.0L566.2,236.0L564.0,234.2ZM762.0,234.0L760.0,232.0L760.0,131.2L760.0,30.4L761.6,28.2L763.1,26.0L826.4,26.0L889.8,26.0L891.1,27.6C892.0,28.7 892.4,33.9 892.4,46.8L892.5,64.5L890.0,65.7C888.1,66.7 878.1,67.0 850.3,67.0L813.1,67.0L812.1,68.7C811.6,69.7 811.3,78.7 811.4,88.8L811.5,107.2L813.5,108.6L815.5,110.1L847.9,109.9L880.3,109.7L881.7,111.5C882.7,112.9 883.0,117.6 883.0,129.7L883.0,146.0L881.1,147.9L879.1,149.9L847.5,150.0C828.2,150.0 815.0,150.4 813.9,151.1L812.0,152.1L811.8,167.8C811.4,189.2 811.6,193.0 812.9,194.3C813.7,195.1 825.4,195.4 851.9,195.5L889.7,195.5L891.3,196.9L893.0,198.2L893.0,215.6L893.0,232.9L890.8,234.4L888.6,236.0L826.3,236.0L764.0,236.0L762.0,234.0ZM941.2,234.8C940.0,234.2 938.7,232.7 938.4,231.6C938.2,230.4 938.1,184.6 938.2,129.8L938.5,30.0L940.7,27.9L942.8,25.8L965.0,25.6L987.3,25.4L990.2,27.8C994.1,31.1 1000.6,39.9 1006.0,49.0C1011.1,57.6 1013.6,61.2 1016.7,64.4C1018.0,65.7 1019.6,68.2 1020.4,70.1C1021.2,72.0 1023.7,76.0 1026.0,79.0C1028.2,82.0 1030.8,85.8 1031.8,87.4C1032.7,89.0 1034.5,91.4 1035.6,92.9C1036.8,94.3 1038.7,97.3 1039.9,99.5C1041.1,101.7 1043.3,105.4 1044.8,107.6C1046.3,109.9 1048.4,113.0 1049.4,114.6C1050.4,116.2 1052.1,118.6 1053.0,120.0C1054.0,121.4 1055.7,124.5 1056.9,126.8C1058.1,129.1 1059.4,131.0 1059.9,131.0C1060.4,131.0 1063.0,134.6 1065.6,139.1C1070.2,146.8 1072.9,149.5 1075.2,148.8C1076.1,148.5 1076.3,132.4 1076.1,89.7L1075.8,31.1L1078.4,28.5L1080.9,26.0L1102.8,26.0L1124.7,26.0L1126.3,27.8L1128.0,29.7L1128.0,131.8L1128.0,233.9L1126.1,235.0C1123.6,236.3 1080.8,236.3 1077.4,235.0C1074.2,233.7 1069.3,228.4 1067.0,223.5C1065.9,221.3 1063.4,217.5 1061.5,215.0C1059.5,212.5 1057.2,209.2 1056.2,207.6C1055.3,206.0 1053.0,202.6 1051.2,199.9C1049.5,197.2 1048.0,194.8 1048.0,194.5C1048.0,194.2 1046.1,191.2 1043.8,187.8C1038.9,181.0 1034.8,174.8 1032.2,170.7C1031.3,169.1 1028.5,165.1 1026.0,161.8C1023.5,158.4 1019.9,153.3 1018.0,150.3C1012.0,141.1 1006.7,133.6 1004.4,131.0C1003.1,129.6 1001.6,127.2 1001.0,125.6C998.1,117.9 991.2,110.1 990.9,114.2C990.9,114.9 990.8,141.8 990.8,173.9L990.7,232.3L988.9,234.1L987.0,236.0L965.2,235.9C951.7,235.9 942.6,235.5 941.2,234.8ZM1224.7,234.2L1223.0,232.3L1223.0,150.6L1223.0,69.0L1220.4,68.0C1219.0,67.4 1207.2,67.0 1194.1,67.0L1170.2,67.0L1168.9,65.3C1166.8,62.8 1167.6,30.2 1169.8,27.8L1171.3,26.0L1249.5,26.0L1327.7,26.0L1329.6,28.1L1331.5,30.2L1332.1,46.4C1332.5,59.0 1332.4,63.0 1331.3,64.7L1330.0,67.0L1304.4,67.0C1288.7,67.0 1278.1,67.4 1276.9,68.0L1275.0,69.1L1275.0,151.0L1275.0,232.9L1272.8,234.4L1270.6,236.0L1248.4,236.0L1226.3,236.0L1224.7,234.2ZM443.9,157.5L445.3,156.1L443.6,149.3C442.6,145.6 440.5,139.2 438.9,135.2C437.3,131.1 436.0,127.0 436.0,126.0C436.0,124.9 434.9,122.0 433.5,119.4C432.1,116.8 431.0,113.8 431.0,112.8C431.0,111.7 429.9,108.5 428.6,105.7C427.3,102.8 425.9,98.6 425.5,96.3C425.1,93.9 424.0,91.0 423.0,89.8L421.1,87.5L419.3,88.6C418.3,89.2 417.2,91.5 416.7,93.6C415.2,100.8 412.7,109.5 411.0,113.0C410.0,114.9 408.9,118.3 408.6,120.4C408.2,122.6 407.0,126.0 406.0,127.9C401.9,135.8 397.0,153.6 398.0,156.5L398.7,158.5L418.1,159.0C439.4,159.7 441.8,159.5 443.9,157.5Z" /><path transform="translate(194.5 1143.0) scale(1.0)" fill="#FFFFFF" fill-rule="evenodd" d="M637.0,97.1C626.6,94.9 618.1,83.5 619.3,73.7C620.1,66.7 623.7,60.2 628.6,56.7C633.5,53.3 634.1,50.9 631.0,47.0C629.6,45.2 629.0,42.9 629.0,38.9L629.0,33.3L632.6,28.7C641.0,18.0 660.1,18.6 667.7,29.9C670.5,34.1 670.6,35.4 668.0,38.0C664.8,41.2 660.6,40.6 655.6,36.0C650.5,31.3 646.1,30.6 643.6,34.2C640.9,38.1 641.6,41.6 646.2,46.7C655.6,57.0 667.0,68.0 668.3,68.0C669.1,68.0 671.0,66.3 672.5,64.2C676.2,59.2 677.9,58.0 681.0,58.0C686.6,58.0 687.6,63.1 683.0,68.3C679.6,72.2 677.7,76.6 678.5,78.9C678.8,79.8 682.2,83.2 686.0,86.4C693.6,92.8 693.8,93.1 691.4,95.4C688.1,98.8 679.6,97.3 673.7,92.4C672.1,91.1 670.0,90.0 669.0,90.0C668.0,90.0 665.9,91.1 664.3,92.4C662.8,93.6 660.5,95.2 659.2,95.9C656.4,97.4 641.8,98.2 637.0,97.1ZM763.4,97.0C757.0,96.3 756.8,96.2 745.0,86.7C734.0,77.8 730.4,62.1 735.7,45.8L738.3,37.5L743.0,33.0C745.5,30.5 749.8,27.1 752.6,25.5L757.5,22.5L771.0,22.5L784.5,22.5L790.6,26.8C796.0,30.5 799.8,34.3 802.4,38.7C803.6,40.7 799.4,44.0 795.6,44.0C793.0,44.0 791.0,43.0 787.6,40.0C778.8,32.4 764.2,31.8 756.1,38.6C751.5,42.4 746.9,52.6 746.8,59.1C746.6,71.6 754.8,82.0 767.5,85.0L773.1,86.3L778.4,84.6C783.7,83.0 788.3,79.1 792.5,72.6L794.2,70.0L793.0,68.5C792.0,67.3 789.3,67.0 780.6,67.0C773.2,67.0 769.0,66.6 768.2,65.8C766.4,64.0 766.8,59.5 768.8,57.6L770.7,56.0L787.0,56.2C806.6,56.4 806.4,56.3 805.8,66.4C805.2,78.8 796.8,90.3 784.5,95.8C781.5,97.2 770.3,97.8 763.4,97.0ZM53.3,95.4C48.5,93.0 40.0,83.6 40.0,80.6C40.0,73.2 46.9,73.2 55.1,80.5C63.9,88.3 69.6,89.0 76.1,82.9L79.3,80.0L78.7,75.8C78.0,70.5 75.6,68.2 68.9,66.5C65.9,65.8 61.0,64.2 58.0,63.1C55.0,62.0 51.7,61.1 50.8,61.0C49.9,61.0 47.1,58.5 44.6,55.4L40.0,49.8L40.0,43.0L40.0,36.2L43.3,31.4C47.8,24.9 50.5,23.1 57.9,21.9C69.1,20.1 76.1,21.6 83.3,27.4C92.9,35.1 93.3,43.0 84.0,43.0L80.1,43.0L76.9,39.0C75.0,36.6 72.0,34.4 69.3,33.4L64.9,31.7L61.0,32.9C56.8,34.1 52.0,39.0 52.0,42.1C52.0,44.5 61.0,51.6 65.2,52.5C67.0,52.9 71.9,54.6 76.0,56.2C87.7,60.8 92.0,65.9 92.0,74.9C92.0,83.2 89.3,87.7 80.6,94.1L76.7,97.0L66.6,97.0C59.5,97.0 55.6,96.5 53.3,95.4ZM125.7,95.2L124.0,93.4L123.8,63.4L123.5,33.5L115.5,33.0C111.1,32.7 106.9,32.1 106.2,31.7C104.2,30.3 104.8,25.3 107.2,23.6L109.4,22.0L132.2,22.0L155.0,22.0L156.6,24.4L158.2,26.9L156.8,29.7L155.5,32.5L147.7,32.6C143.4,32.7 139.5,33.1 139.0,33.6C138.5,34.1 137.9,48.0 137.6,64.5L137.2,94.4L135.4,95.7C132.8,97.6 127.6,97.3 125.7,95.2ZM173.7,95.2L172.1,93.5L171.9,59.1L171.7,24.7L173.6,23.3C175.1,22.1 178.9,21.9 192.0,22.2L208.5,22.5L215.0,27.6C227.2,37.1 227.4,51.7 215.6,61.4C209.3,66.5 208.9,68.8 213.4,75.5C215.4,78.5 218.6,83.4 220.5,86.3C225.7,94.3 224.7,97.0 216.3,97.0C210.9,97.0 210.2,96.2 202.1,80.5C196.0,68.9 194.1,67.1 188.5,67.9C184.5,68.4 184.1,69.9 184.9,81.0C185.8,93.3 185.6,94.4 182.4,95.9C178.8,97.5 175.5,97.3 173.7,95.2ZM239.1,95.1L237.1,93.1L238.5,89.0C239.3,86.7 240.8,83.7 241.9,82.2C242.9,80.7 244.1,78.0 244.5,76.1C244.9,74.2 246.3,70.4 247.6,67.6C248.9,64.8 250.0,61.5 250.0,60.2C250.0,59.0 251.1,55.2 252.5,51.7C253.9,48.3 255.7,42.9 256.6,39.8C258.0,34.1 260.9,28.2 263.8,24.8C264.9,23.5 266.8,23.0 270.5,23.0C277.1,23.0 278.9,24.8 282.6,35.5C284.1,39.9 286.0,44.4 286.7,45.6C287.4,46.8 288.7,50.4 289.5,53.6C290.4,56.8 292.2,62.0 293.5,65.1C294.9,68.2 296.0,71.4 296.0,72.3C296.0,73.1 297.8,77.7 300.0,82.5C304.5,92.3 304.8,94.5 302.1,96.0C296.1,99.2 289.7,95.9 287.6,88.6C285.4,81.0 285.2,80.9 270.4,81.2L257.6,81.5L255.3,84.9C254.0,86.8 253.0,89.3 253.0,90.5C253.0,94.2 250.7,96.2 245.8,96.7L241.2,97.2L239.1,95.1ZM335.6,95.4L334.0,93.9L334.0,64.6C334.0,43.2 333.7,35.1 332.8,34.2C332.1,33.5 328.6,33.0 323.9,33.0C315.4,33.0 313.6,32.0 314.2,27.3C314.7,22.5 317.3,22.0 341.7,22.0L363.9,22.0L365.4,23.6C367.2,25.4 367.4,28.3 366.0,31.1L364.9,33.0L357.2,33.0C353.0,33.0 348.9,33.4 348.1,33.9L346.7,34.8L346.9,64.3L347.1,93.8L344.8,95.4C341.9,97.4 337.6,97.4 335.6,95.4ZM384.4,95.6L382.3,94.1L381.5,62.3C381.1,44.8 380.7,29.2 380.7,27.6C380.7,22.5 382.6,22.0 401.7,22.0L419.0,22.0L421.0,24.0C423.5,26.5 423.6,29.2 421.2,31.3L419.3,33.0L407.8,33.0L396.2,33.0L394.9,34.6C393.0,37.0 393.5,50.1 395.7,51.8C396.8,52.6 401.0,53.0 407.6,53.0C420.5,53.0 423.9,55.5 419.4,61.8L417.9,64.0L408.2,64.0C401.0,64.0 397.9,64.4 396.2,65.6L394.0,67.1L394.0,75.0L394.0,82.9L396.2,84.4C397.9,85.6 401.1,86.0 409.2,86.0L420.0,86.0L422.0,88.0C424.4,90.4 424.5,91.9 422.6,94.6L421.2,96.5L403.8,96.8L386.5,97.1L384.4,95.6ZM457.3,93.2C444.4,86.4 437.0,74.1 437.0,59.6L437.0,52.2L440.1,44.3C446.8,27.5 462.6,19.1 482.0,22.1C489.4,23.2 494.3,26.0 501.2,33.2C506.5,38.6 506.9,40.1 504.0,43.0C500.6,46.4 495.5,45.0 490.6,39.4C488.4,36.9 485.9,35.5 481.8,34.3C459.4,28.1 443.7,49.4 453.1,73.1C454.7,77.2 461.2,81.8 468.5,84.1L475.0,86.1L481.9,84.0L488.8,81.9L492.5,77.2C494.9,74.1 496.0,71.7 495.8,70.0L495.5,67.5L485.1,67.2C479.3,67.1 474.1,66.5 473.4,65.9C471.1,64.0 471.1,60.9 473.4,58.6L475.6,56.3L491.7,56.5C509.8,56.8 509.7,56.8 510.6,61.6C512.4,71.3 502.3,87.3 490.5,93.4L483.5,97.0L473.9,97.0L464.3,97.0L457.3,93.2ZM544.0,95.2L541.8,93.4L541.9,82.0L542.1,70.5L537.0,60.5C534.2,55.0 531.0,49.6 529.9,48.4C528.9,47.3 527.3,43.9 526.4,41.0C525.5,38.0 523.7,34.2 522.3,32.6C517.1,26.4 521.6,19.9 529.0,23.0C531.3,24.0 532.9,25.8 534.9,29.9C536.4,33.0 538.1,36.4 538.7,37.5C539.3,38.6 541.3,42.6 543.2,46.3C548.8,57.8 550.0,57.6 555.3,44.2C557.2,39.4 560.3,32.8 562.1,29.5L565.6,23.6L569.3,22.7C572.2,22.0 573.6,22.2 575.5,23.4C578.8,25.5 578.7,27.8 575.0,32.8C573.4,35.0 571.4,38.4 570.5,40.2C569.7,42.0 568.4,44.6 567.6,46.0C566.9,47.4 564.1,52.9 561.4,58.3C558.7,63.8 556.2,68.4 555.8,68.7C555.3,68.9 555.0,74.7 555.0,81.5L555.0,93.9L552.8,95.4C549.8,97.5 546.7,97.4 544.0,95.2ZM823.6,95.7L821.9,94.4L821.8,59.6C821.8,34.6 822.1,24.5 822.9,23.7C823.7,22.9 829.4,22.5 840.3,22.5L856.5,22.5L861.1,25.2C876.5,34.2 878.2,51.9 864.6,62.1C859.0,66.3 858.4,67.7 860.9,71.0C862.0,72.4 864.1,75.9 865.5,78.9C866.9,81.8 869.3,85.8 871.0,87.6C875.8,93.1 874.3,97.0 867.5,97.0C862.2,97.0 859.7,94.6 854.5,84.4C847.0,69.9 842.1,65.3 836.9,68.0L835.0,69.1L835.0,82.0L835.0,94.9L833.1,96.0C830.4,97.4 825.7,97.3 823.6,95.7ZM910.5,94.1C908.3,92.4 906.1,91.0 905.7,91.0C904.1,91.0 895.8,83.4 893.8,80.2C891.5,76.5 888.0,63.4 888.0,58.6C888.0,56.8 889.2,51.4 890.6,46.5C893.5,36.4 897.3,31.3 904.5,27.9C906.7,26.9 910.1,25.1 912.0,24.0L915.5,21.9L926.5,22.2L937.6,22.5L943.4,26.0C949.2,29.5 956.9,37.2 959.4,42.0C960.2,43.4 961.3,47.9 962.0,52.0L963.3,59.4L961.9,67.9L960.6,76.4L955.5,82.5C952.7,85.8 947.5,90.3 944.0,92.5L937.6,96.5L926.0,96.8L914.5,97.1L910.5,94.1ZM990.6,94.8C989.9,93.5 988.9,90.0 988.6,87.0C988.2,84.0 986.7,78.1 985.4,74.0C984.0,69.9 982.4,64.0 981.8,61.0C981.3,58.0 980.2,54.4 979.4,52.9C978.7,51.4 977.4,47.1 976.6,43.2C975.8,39.4 974.2,34.3 973.0,32.0C969.5,25.1 972.8,21.0 980.6,22.4C984.4,23.2 985.4,24.6 986.4,30.9C986.8,33.3 987.7,36.4 988.4,37.9C989.2,39.4 990.1,42.4 990.5,44.5C992.8,58.4 997.3,74.0 999.0,74.0C1001.2,74.0 1004.6,64.0 1007.0,50.1C1007.7,46.5 1009.0,42.0 1010.0,40.1C1011.0,38.1 1012.1,34.5 1012.5,32.0C1013.5,25.8 1015.4,23.2 1019.4,22.5C1026.6,21.1 1029.8,24.6 1032.6,36.7C1033.5,40.4 1035.2,46.4 1036.5,50.0C1037.8,53.6 1039.2,58.7 1039.5,61.3C1041.6,77.2 1048.0,82.3 1048.0,68.1C1048.0,66.0 1048.7,62.1 1049.5,59.4C1052.0,51.3 1055.0,38.0 1055.0,35.2C1055.1,25.6 1064.5,18.5 1069.9,23.9L1071.9,25.9L1069.9,32.2C1068.8,35.7 1067.4,39.9 1066.8,41.5C1066.3,43.1 1065.3,46.3 1064.8,48.5C1064.2,50.7 1062.9,55.3 1061.8,58.7C1060.8,62.1 1059.0,69.5 1058.0,75.0C1054.8,91.4 1051.2,97.0 1044.0,97.0C1037.9,97.0 1036.2,95.6 1034.5,89.0C1033.8,86.0 1032.5,81.5 1031.7,79.0C1030.9,76.5 1029.8,72.7 1029.2,70.5C1028.6,68.3 1027.5,64.5 1026.7,62.0C1025.9,59.5 1024.8,55.7 1024.4,53.5C1023.7,50.5 1023.0,49.4 1021.3,49.2C1018.9,48.9 1017.6,51.9 1016.4,60.0C1016.1,62.5 1014.4,68.7 1012.8,73.8C1011.1,79.0 1009.4,85.9 1009.1,89.2C1008.2,96.4 1007.5,97.0 998.8,97.0L992.0,97.0L990.6,94.8ZM1102.6,95.4L1101.0,93.9L1101.0,64.6C1101.0,41.8 1100.7,35.0 1099.7,34.2C1099.0,33.6 1094.8,33.0 1090.5,32.8L1082.6,32.5L1081.4,30.2C1077.9,23.2 1082.0,22.0 1108.9,22.0L1130.6,22.0L1132.8,23.6C1135.5,25.4 1135.7,29.1 1133.2,31.3C1131.8,32.6 1129.4,33.0 1123.2,33.0L1115.1,33.0L1114.0,35.0C1113.2,36.4 1112.9,46.6 1113.1,65.7L1113.3,94.3L1111.4,95.7C1109.0,97.5 1104.5,97.4 1102.6,95.4ZM1150.6,95.7L1148.7,94.3L1148.3,59.8L1147.9,25.2L1150.2,23.6C1153.2,21.5 1155.3,21.6 1158.1,23.9L1160.5,25.8L1160.2,38.0C1160.0,46.3 1160.2,50.6 1161.0,51.6C1162.8,53.6 1192.2,53.7 1193.9,51.6C1194.7,50.6 1195.0,46.2 1194.9,38.0L1194.7,25.9L1196.2,24.3C1198.5,22.1 1204.9,22.2 1206.6,24.4C1207.6,25.9 1207.9,33.3 1207.9,59.8L1207.9,93.4L1206.3,95.2C1204.3,97.4 1200.2,97.5 1197.2,95.4L1194.9,93.8L1195.1,80.3L1195.4,66.7L1193.5,65.4C1191.3,63.8 1164.5,63.4 1162.0,65.0L1160.5,65.9L1160.5,80.0L1160.5,94.2L1158.6,95.6C1156.1,97.4 1152.9,97.4 1150.6,95.7ZM654.4,84.0C658.0,82.3 661.0,80.5 661.0,80.0C661.0,76.8 642.9,60.6 640.2,61.4C636.8,62.5 632.0,70.0 632.0,74.3C632.0,79.8 639.4,85.9 647.1,86.9C647.4,87.0 650.7,85.6 654.4,84.0ZM931.5,84.9C943.0,81.4 949.0,72.7 949.0,59.4C949.0,47.5 942.6,37.8 932.8,34.7C922.5,31.5 916.4,32.9 908.4,40.3L902.8,45.5L901.7,53.1C899.5,68.8 904.7,79.3 917.5,84.5C924.8,87.5 923.5,87.4 931.5,84.9ZM280.3,65.7C280.1,63.6 279.0,59.3 277.6,56.2C276.3,53.1 274.7,48.6 274.1,46.4C272.2,39.1 269.0,39.6 266.9,47.5C266.3,49.7 264.5,55.0 262.8,59.3L259.8,67.0L261.0,68.5C262.0,69.8 264.2,70.0 271.4,69.8L280.5,69.5L280.3,65.7ZM205.3,55.6C213.1,50.4 212.5,37.1 204.3,33.9C200.6,32.5 187.2,32.6 185.5,34.0C183.5,35.6 183.3,54.2 185.2,55.8C188.5,58.4 201.1,58.3 205.3,55.6ZM856.6,53.6L861.0,49.3L861.0,44.6L861.0,39.9L858.2,37.3C856.7,35.9 854.5,34.4 853.3,33.9C849.8,32.6 837.0,32.6 835.7,33.9C834.4,35.2 834.0,52.2 835.2,55.8L836.0,58.0L844.1,58.0L852.3,58.0L856.6,53.6Z" /></svg></svg>